# xmcd
#
# Track frame offsets:
#	150
#	17956
#	32259
#	45463
#
# Disc length: 843 seconds
#
# Revision: 0
# Processed by: cddbd v1.5.1PL2 Copyright (c) Steve Scherf et al.
# Submitted via: audiograbber 1.83.01
#
DISCID=23034904
DTITLE=Tim Allen - Leaving The Land
DYEAR=1900
DGENRE=Country
TTITLE0=Leaving The Land
TTITLE1=Friends Ain´t Friends
TTITLE2=I Promised You More
TTITLE3=Leaving The Land
EXTD=
EXTT0=
EXTT1=
EXTT2=
EXTT3=
PLAYORDER=
